<svg width="50" height="26" viewBox="0 0 50 26" fill="none" xmlns="http://www.w3.org/2000/svg">
<path d="M12.5 26H0V0H12.5V26ZM37.5 0V26H50V0H37.5ZM25 2.35L23.3 5.533C23.1 5.883 22.767 5.85 22.417 5.65L21.167 5L22.083 9.883C22.283 10.783 21.65 10.783 21.35 10.383L19.2 7.967L18.85 9.2C18.817 9.367 18.633 9.533 18.367 9.483L15.633 8.917L16.35 11.517C16.5 12.1 16.617 12.333 16.2 12.483L15.233 12.933L19.917 16.75C20.1 16.9 20.2 17.15 20.133 17.383L19.717 18.733C21.333 18.55 22.783 18.267 24.4 18.1C24.55 18.083 24.783 18.317 24.783 18.483L24.567 23.417H25.35L25.233 18.483C25.233 18.317 25.45 18.067 25.6 18.083C27.217 18.25 28.667 18.533 30.283 18.717L29.867 17.367C29.8367 17.2518 29.841 17.1302 29.8794 17.0174C29.9179 16.9047 29.9887 16.8057 30.083 16.733L34.767 12.917L33.8 12.467C33.367 12.317 33.5 12.067 33.65 11.5L34.367 8.9L31.633 9.5C31.367 9.533 31.183 9.367 31.15 9.217L30.8 7.983L28.65 10.4C28.35 10.783 27.717 10.783 27.917 9.9L28.833 5L27.6 5.633C27.25 5.833 26.9 5.867 26.717 5.517L25 2.35Z" fill="#FCFAF6" fill-opacity="0.7"/>
</svg>
