<svg width="14" height="16" viewBox="0 0 14 16" fill="none" xmlns="http://www.w3.org/2000/svg">
<path d="M5.84411 0C5.01273 0 4.3388 0.674246 4.3388 1.50568C4.3388 2.33712 5.01273 3.01109 5.84411 3.01109C6.67521 3.01109 7.34942 2.33712 7.34942 1.50568C7.34942 0.674246 6.67521 0 5.84411 0ZM5.03322 3.11102C4.14682 3.11298 3.98318 3.67102 3.98318 4.12772V9.49979C3.98318 9.96154 4.35508 10.3349 4.81653 10.3332L8.63298 10.3164C8.63298 10.3164 9.94686 12.3062 10.6051 13.2996C10.8024 13.5975 11.0648 13.8608 11.4437 13.8608C11.9436 13.8608 12.404 13.4529 12.3492 12.9552C12.3285 12.7601 12.2844 12.5752 12.1662 12.3997C11.5793 11.5248 10.4164 9.63228 9.77733 8.92182C9.61509 8.74133 9.39083 8.60968 9.12755 8.61053L5.9721 8.62175V5.27775L8.22206 6.8334C8.54653 7.05712 8.9872 6.97432 9.21063 6.65011C9.43461 6.32561 9.35209 5.88519 9.02734 5.66119C9.02734 5.66119 6.68784 4.04716 5.51655 3.23902C5.39474 3.15481 5.16963 3.11102 5.03322 3.11102ZM13.7327 4.6167C13.6785 4.6167 13.6241 4.63607 13.5826 4.67761L10.7771 7.48323H6.79956C6.68223 7.48323 6.58876 7.57698 6.58876 7.69432V7.77207C6.58876 7.88968 6.68223 7.98316 6.79956 7.98316H10.8883C10.9517 7.98316 11.0132 7.95846 11.0491 7.92225L13.9379 5.03326C14.0207 4.95018 14.0207 4.81628 13.9379 4.73319L13.8823 4.67761C13.8413 4.63635 13.7863 4.6167 13.7327 4.6167ZM3.5832 6.08337C1.52215 6.70288 0 8.62344 0 10.9331C0 13.753 2.27943 16 5.02199 16C7.12318 16 8.95268 14.6844 9.69396 12.8L8.93865 11.6609C8.59621 13.4703 6.998 14.8668 5.02227 14.8668C2.78943 14.8668 1.03376 13.0807 1.03376 10.9331C1.03376 9.27691 2.08211 7.83804 3.58349 7.26653V6.08337H3.5832Z" fill="black" fill-opacity="0.5"/>
</svg>
