<svg width="131" height="32" viewBox="0 0 131 32" fill="none" xmlns="http://www.w3.org/2000/svg">
<path fill-rule="evenodd" clip-rule="evenodd" d="M99.1745 26.2516C99.1745 27.8818 98.5387 28.7827 97.521 28.7827C96.503 28.7827 95.8243 27.9248 95.8243 26.3376C95.8243 23.8494 96.8844 22.3483 99.1745 21.5764V26.2516ZM103.51 27.3953L103.501 27.3994V19.0881C103.501 17.158 103.501 15.6135 102.61 14.3699C101.634 12.9971 99.9381 12.2247 97.7751 12.2247C94.4244 12.2247 92.4736 13.6835 92.4736 15.871C92.4736 17.2867 93.2793 18.1446 94.7216 18.1446C95.9937 18.1446 96.7573 17.3723 96.7573 16.2571C96.7573 15.828 96.6301 15.3133 96.3759 14.6699C96.715 14.4984 97.0544 14.4128 97.4358 14.4128C98.9201 14.4128 99.1745 15.6135 99.1745 18.0157V19.1312C94.2123 20.7183 91.9222 23.0345 91.9222 26.938C91.9222 30.0693 93.5337 31.9998 95.8666 31.9998C97.4422 31.9998 98.8937 31.1802 99.8343 29.9536C100.193 30.6939 101.062 31.6963 103.141 31.6963C104.593 31.6963 105.496 30.4221 105.496 30.4221V29.0945C105.496 29.0945 105.155 29.2804 104.866 29.2804C104.42 29.2802 103.51 28.8555 103.51 27.3953ZM89.5444 29.2976C89.2042 28.9546 89.1622 28.6114 89.1622 28.1823V0.514288H83.8184V1.93005C83.8184 2.48772 84.2427 2.65922 84.4541 2.83092C84.7943 3.17411 84.8364 3.51731 84.8364 3.94605V28.1823C84.8364 28.6114 84.7943 28.9546 84.4541 29.2976C84.2427 29.5123 83.8184 29.6408 83.8184 30.1987V31.4853H90.1801V30.1987C90.1801 29.6836 89.7558 29.5123 89.5444 29.2976ZM72.6773 14.756H72.253V3.08836H72.6773C76.2395 3.08836 77.3424 4.76137 77.3424 8.9223C77.3424 13.0828 76.2395 14.756 72.6773 14.756ZM78.3181 1.54388C76.1553 0.514288 73.6103 0.514288 70.4716 0.514288H66.2728V1.71578C66.2728 2.40217 66.6122 2.44474 66.8665 2.65922C67.4179 3.13114 67.4608 3.56029 67.4608 4.032V27.5818C67.4608 28.3108 67.4179 28.7399 66.7394 29.2976C66.4001 29.5548 66.0187 29.5978 66.0187 30.2842V31.4853H73.7802V30.2842C73.7802 29.6408 73.3559 29.5548 73.0166 29.2976C72.338 28.7829 72.253 28.4397 72.253 27.882V17.3295H72.4231C79.124 17.3295 82.3897 14.4986 82.3897 8.66465C82.3897 5.36161 80.8625 2.74537 78.3181 1.54388ZM113.391 28.9546C111.525 28.9546 110.592 27.1957 110.592 23.5924V20.8472C110.592 16.472 111.271 14.3699 113.264 14.3699C113.9 14.3699 114.366 14.6271 114.621 15.0133C113.985 15.4424 113.645 16.0429 113.645 16.815C113.645 17.9731 114.451 18.788 115.681 18.788C117.081 18.788 118.014 17.8016 118.014 16.3429C118.014 13.9839 116.063 12.2249 113.094 12.2249C108.768 12.2249 105.969 16.0429 105.969 22.7775C105.969 28.654 108.471 32 112.373 32C115.681 32 117.547 29.941 118.056 25.7801L115.978 25.3513C115.681 27.7965 114.875 28.9546 113.391 28.9546ZM123.706 18.5736C123.706 15.8282 124.384 14.3699 125.444 14.3699C126.674 14.3699 127.183 15.8282 127.183 18.8312V19.8606H123.706V18.5736ZM126.25 29.0831C124.172 29.0831 123.706 27.3244 123.706 23.4209V22.2628H131C131 15.485 129.262 12.2249 125.19 12.2249C121.5 12.2249 119.199 16.0429 119.199 22.8632C119.199 28.7829 121.373 32 125.317 32C128.583 32 130.406 30.0695 130.873 26.1233L128.71 25.7375C128.456 27.925 127.565 29.0831 126.25 29.0831ZM10.9852 18.8742C10.9852 26.1233 10.6453 29.3834 8.22791 29.3834C5.81077 29.3834 5.42855 26.1233 5.42855 18.8742V13.0828C5.42855 5.83373 5.81077 2.61624 8.22791 2.61624C10.6453 2.61624 10.9852 5.83373 10.9852 13.0828V18.8742ZM8.22791 0C3.35073 0 0 5.57629 0 15.9999C0 26.3807 3.35073 32 8.22791 32C13.1053 32 16.4139 26.3807 16.4139 15.9999C16.4139 5.61926 13.1053 0 8.22791 0ZM31.5718 27.882V12.6967H26.2274V14.1554C26.2274 14.7127 26.6517 14.8418 26.8638 15.0133C27.2031 15.3565 27.2454 15.6997 27.2454 16.1284V27.7961C26.6517 28.4825 26.0152 28.8685 25.2946 28.8685C24.0646 28.8685 23.8524 27.7961 23.8524 25.6514V12.6967H18.5509V14.1554C18.5509 14.7127 18.9752 14.8418 19.1872 15.0133C19.5266 15.3565 19.5694 15.6997 19.5694 16.1284V25.1796C19.5694 29.6836 19.993 32 23.2587 32C24.7859 32 26.5569 31.1533 27.6306 29.3227C27.6306 29.3227 28.0293 31.8417 31.3064 31.8417C32.5403 31.8417 33.5378 30.5674 33.5378 30.5674V29.2398C33.5378 29.2398 33.1965 29.4257 32.9078 29.4257C32.4988 29.4257 31.7021 29.0661 31.5718 27.882ZM44.4819 12.2892C42.9125 12.2892 41.3011 13.5333 40.2831 15.8499V12.6324H35.0666V14.0911C35.0666 14.6484 35.4903 14.7775 35.7024 14.949C36.0846 15.3348 36.1267 15.721 36.1267 16.2357V28.075C36.1267 28.5897 36.0846 28.9759 35.7024 29.3621C35.4903 29.5765 35.0666 29.7051 35.0666 30.2629V31.5496H41.6825V30.2629C41.6825 29.5765 41.2161 29.5765 40.9189 29.3621C40.4525 29.0189 40.4104 28.6327 40.4104 28.075V24.086C40.4104 19.7043 40.5387 17.0246 42.7562 15.6549C42.9592 16.4633 43.6962 17.1661 44.919 17.1661C46.1963 17.1661 46.704 16.2616 46.8886 15.5789C46.8908 15.5716 46.8926 15.5641 46.8946 15.5568C46.9072 15.5085 46.9183 15.4621 46.9277 15.4167C46.9337 15.3891 46.9403 15.3624 46.9451 15.334C46.9736 15.1763 46.984 15.0429 46.984 14.9535L46.9804 14.9523C46.9812 14.9223 46.984 14.8939 46.984 14.8631C46.984 13.2758 45.9662 12.2892 44.4819 12.2892Z" fill="#35312E"/>
</svg>
